<?xml version="1.0" encoding="UTF-8" standalone="no"?>
<!DOCTYPE svg PUBLIC "-//W3C//DTD SVG 1.1//EN" "http://www.w3.org/Graphics/SVG/1.1/DTD/svg11.dtd">

<!-- Created with Vectornator (http://vectornator.io/) -->
<svg height="100%" stroke-miterlimit="10" style="fill-rule:nonzero;clip-rule:evenodd;stroke-linecap:round;stroke-linejoin:round;" version="1.1" viewBox="0 0 457.812 52.1984" width="100%" xml:space="preserve" xmlns="http://www.w3.org/2000/svg" xmlns:vectornator="http://vectornator.io" xmlns:xlink="http://www.w3.org/1999/xlink">
<metadata>
<vectornator:setting key="IsTimeLapseWatermarkDisabled" value="false"/>
<vectornator:setting key="UndoHistoryDisabled" value="true"/>
<vectornator:setting key="VNDimensionsVisible" value="true"/>
<vectornator:setting key="VNSnapToGuides" value="true"/>
<vectornator:setting key="WDCMYKEnabledKey" value="false"/>
<vectornator:setting key="WDDisplayWhiteBackground" value="false"/>
<vectornator:setting key="WDDynamicGuides" value="false"/>
<vectornator:setting key="WDGuidesVisible" value="true"/>
<vectornator:setting key="WDIsolateActiveLayer" value="false"/>
<vectornator:setting key="WDOutlineMode" value="false"/>
<vectornator:setting key="WDRulersVisible" value="true"/>
<vectornator:setting key="WDSnapToEdges" value="false"/>
<vectornator:setting key="WDSnapToGrid" value="false"/>
<vectornator:setting key="WDSnapToPoints" value="false"/>
<vectornator:setting key="WDUnits" value="Millimeters"/>
</metadata>
<defs>
<clipPath id="TextBounds">
<rect height="49.7432" width="392.333" x="78.2159" y="0"/>
</clipPath>
<filter color-interpolation-filters="sRGB" filterUnits="userSpaceOnUse" height="57.5954" id="Filter" width="84.0429" x="0.00802841" y="-1.78081">
<feDropShadow dx="-3.67321e-05" dy="10" flood-color="#000000" flood-opacity="0.333" in="SourceGraphic" result="Shadow" stdDeviation="5"/>
</filter>
<filter color-interpolation-filters="sRGB" filterUnits="userSpaceOnUse" height="39.9768" id="Filter_2" width="39.9246" x="22.5028" y="9.94875">
<feDropShadow dx="-0.0690388" dy="9.99976" flood-color="#000000" flood-opacity="0.333" in="SourceGraphic" result="Shadow" stdDeviation="5"/>
</filter>
</defs>
<clipPath id="ArtboardFrame">
<rect height="52.1984" width="457.812" x="0" y="0"/>
</clipPath>
<g clip-path="url(#ArtboardFrame)" id="Layer-1" vectornator:layerName="Layer 1" visibility="hidden">
<g opacity="1">
<g opacity="1">
<path d="M34.8843 189.562C45.1473 184.431 52.0735 174.755 60.3478 166.928C77.8887 150.335 96.6105 134.599 115.802 119.962C139.716 101.722 164.995 85.7711 189.929 69.0345C223.972 46.1841 257.981 23.2073 291.783 0" fill="#ff5e07" fill-rule="evenodd" stroke="none"/>
<path d="M291.781 0C257.716 22.8429 223.6 45.6157 189.312 68.125C164.219 84.5984 138.667 100.432 114.531 118.312C108.433 122.83 102.475 127.532 96.5312 132.25C85.0044 141.401 73.8053 150.882 62.9688 160.844C59.3312 164.188 55.7573 167.615 52.3438 171.188C46.6331 177.165 41.024 183.209 33.5938 187.062C32.2213 187.781 31.6877 189.503 32.4062 190.875C33.1248 192.247 34.815 192.781 36.1875 192.062C38.8618 190.65 41.3782 189.036 43.75 187.156C49.0876 182.926 53.5613 177.751 58.25 172.844C60.9245 170.045 63.7378 167.396 66.5625 164.75C83.6368 148.755 101.524 133.62 120.031 119.312C142.744 101.754 166.852 86.1343 190.531 69.9375C224.388 46.7796 258.118 23.4381 291.781 0Z" fill="#ff5e07" stroke="none"/>
</g>
<g opacity="1">
<path d="M152.583 102.986C168.324 116.76 174.845 138.76 182.573 157.308" fill="#ff5e07" fill-rule="evenodd" stroke="none"/>
<path d="M152.438 100.188C151.721 100.227 151.017 100.548 150.5 101.125C149.983 101.702 149.742 102.439 149.781 103.156C149.821 103.873 150.142 104.546 150.719 105.062C166.631 118.808 174.009 138.732 182.562 157.312C179.196 147.859 176.176 138.273 172.406 128.969C169.731 122.367 166.682 115.788 162.531 109.969C160.164 106.651 157.456 103.672 154.469 100.906C153.892 100.39 153.154 100.148 152.438 100.188Z" fill="#ff5e07" stroke="none"/>
</g>
<g opacity="1">
<path d="M237.911 39.2426C245.407 44.0929 251.835 50.4497 258.341 56.5639C274.439 71.6918 291.091 86.5551 304.531 104.086C311.352 112.982 316.967 122.74 323.185 132.067" fill="#ff5e07" fill-rule="evenodd" stroke="none"/>
<path d="M237.375 36.5C236.671 36.6394 236.025 37.0439 235.594 37.6875C234.732 38.9748 235.056 40.7006 236.344 41.5625C243.102 46.0053 249.001 51.449 254.969 56.875C258.251 59.8596 261.622 62.7361 264.906 65.7188C269 69.4362 273.207 73.041 277.281 76.7812C285.388 84.2231 293.274 91.9492 300.438 100.312C308.933 110.231 315.816 121.318 323.188 132.062C316.763 121.75 310.789 111.127 303.469 101.406C296.79 92.5366 289.304 84.2897 281.594 76.3125C276.45 70.9904 271.267 65.7293 265.938 60.5938C257.36 52.329 249.37 43.6576 239.469 36.9062C238.825 36.4753 238.079 36.3606 237.375 36.5Z" fill="#ff5e07" stroke="none"/>
</g>
<g opacity="0.998077">
<path d="M374.719 122.75C361.419 129.314 348.048 135.775 334.781 142.406C326.809 146.391 318.839 150.412 311 154.656C300.801 160.178 291.165 166.667 280.812 171.906C274.265 175.219 267.429 177.96 260.688 180.844C256.121 182.797 251.647 184.878 247.156 187C235.011 192.74 222.948 198.828 210.25 203.281C200.382 206.742 190.107 209.167 179.938 211.562C168.068 214.359 156.144 216.864 144.062 218.562C137.86 219.435 131.619 220.002 125.375 220.469C119.579 220.902 113.753 221.343 107.938 221.25C99.7257 221.118 91.504 220.11 83.4062 218.781C78.7824 218.023 74.1103 217.271 69.5938 216C63.857 214.385 58.2914 212.165 52.7188 210.062C47.4516 208.075 42.0373 205.942 37.3438 202.781C36.5218 202.228 35.745 201.654 35 201C34.5768 200.629 34.1525 200.236 33.7812 199.812C32.2784 198.097 32.7338 197.321 33.6875 195.438C36.5547 189.511 34.0832 182.398 28.1562 179.531C22.2293 176.664 15.0859 179.136 12.2188 185.062C10.8398 187.992 9.80644 191.03 9.375 194.25C9.20469 195.521 9.10461 196.814 9.125 198.094C9.14539 199.374 9.28203 200.642 9.5 201.906C11.3937 212.892 20.2479 220.263 29.6562 225.094C35.8454 228.271 42.4409 230.511 49.0312 232.688C54.0657 234.351 59.0767 236.148 64.25 237.344C68.3336 238.288 72.5001 238.888 76.6562 239.406C88.102 240.834 99.6166 240.965 111.125 240.281C114.894 240.057 118.688 239.853 122.438 239.406C130.189 238.483 137.855 236.983 145.469 235.281C155.688 232.998 165.759 230.244 175.781 227.219C182.152 225.296 188.497 223.251 194.812 221.156C202.8 218.508 210.721 215.666 218.375 212.156C231.835 205.984 244.518 198.31 257.531 191.281C266.251 186.572 275.291 182.521 283.844 177.5C294.333 171.342 304.02 163.888 314.406 157.562C334.235 145.487 354.555 134.251 374.719 122.75Z" fill="#0fa3f6" stroke="none"/>
</g>
</g>
<g opacity="1">
<g opacity="1">
<path d="M34.8843 189.562C45.1473 184.431 52.0735 174.755 60.3478 166.928C77.8887 150.335 96.6105 134.599 115.802 119.962C139.716 101.722 164.995 85.7711 189.929 69.0345C223.972 46.1841 257.981 23.2073 291.783 0" fill="#ff5e07" fill-rule="evenodd" stroke="none"/>
<path d="M291.781 0C257.716 22.8429 223.6 45.6157 189.312 68.125C164.219 84.5984 138.667 100.432 114.531 118.312C108.433 122.83 102.475 127.532 96.5312 132.25C85.0044 141.401 73.8053 150.882 62.9688 160.844C59.3312 164.188 55.7573 167.615 52.3438 171.188C46.6331 177.165 41.024 183.209 33.5938 187.062C32.2213 187.781 31.6877 189.503 32.4062 190.875C33.1248 192.247 34.815 192.781 36.1875 192.062C38.8618 190.65 41.3782 189.036 43.75 187.156C49.0876 182.926 53.5613 177.751 58.25 172.844C60.9245 170.045 63.7378 167.396 66.5625 164.75C83.6368 148.755 101.524 133.62 120.031 119.312C142.744 101.754 166.852 86.1343 190.531 69.9375C224.388 46.7796 258.118 23.4381 291.781 0Z" fill="#ff5e07" stroke="none"/>
</g>
<g opacity="1">
<path d="M152.583 102.986C168.324 116.76 174.845 138.76 182.573 157.308" fill="#ff5e07" fill-rule="evenodd" stroke="none"/>
<path d="M152.438 100.188C151.721 100.227 151.017 100.548 150.5 101.125C149.983 101.702 149.742 102.439 149.781 103.156C149.821 103.873 150.142 104.546 150.719 105.062C166.631 118.808 174.009 138.732 182.562 157.312C179.196 147.859 176.176 138.273 172.406 128.969C169.731 122.367 166.682 115.788 162.531 109.969C160.164 106.651 157.456 103.672 154.469 100.906C153.892 100.39 153.154 100.148 152.438 100.188Z" fill="#ff5e07" stroke="none"/>
</g>
<g opacity="1">
<path d="M237.911 39.2426C245.407 44.0929 251.835 50.4497 258.341 56.5639C274.439 71.6918 291.091 86.5551 304.531 104.086C311.352 112.982 316.967 122.74 323.185 132.067" fill="#ff5e07" fill-rule="evenodd" stroke="none"/>
<path d="M237.375 36.5C236.671 36.6394 236.025 37.0439 235.594 37.6875C234.732 38.9748 235.056 40.7006 236.344 41.5625C243.102 46.0053 249.001 51.449 254.969 56.875C258.251 59.8596 261.622 62.7361 264.906 65.7188C269 69.4362 273.207 73.041 277.281 76.7812C285.388 84.2231 293.274 91.9492 300.438 100.312C308.933 110.231 315.816 121.318 323.188 132.062C316.763 121.75 310.789 111.127 303.469 101.406C296.79 92.5366 289.304 84.2897 281.594 76.3125C276.45 70.9904 271.267 65.7293 265.938 60.5938C257.36 52.329 249.37 43.6576 239.469 36.9062C238.825 36.4753 238.079 36.3606 237.375 36.5Z" fill="#ff5e07" stroke="none"/>
</g>
<g opacity="0.998077">
<path d="M374.719 122.75C361.419 129.314 348.048 135.775 334.781 142.406C326.809 146.391 318.839 150.412 311 154.656C300.801 160.178 291.165 166.667 280.812 171.906C274.265 175.219 267.429 177.96 260.688 180.844C256.121 182.797 251.647 184.878 247.156 187C235.011 192.74 222.948 198.828 210.25 203.281C200.382 206.742 190.107 209.167 179.938 211.562C168.068 214.359 156.144 216.864 144.062 218.562C137.86 219.435 131.619 220.002 125.375 220.469C119.579 220.902 113.753 221.343 107.938 221.25C99.7257 221.118 91.504 220.11 83.4062 218.781C78.7824 218.023 74.1103 217.271 69.5938 216C63.857 214.385 58.2914 212.165 52.7188 210.062C47.4516 208.075 42.0373 205.942 37.3438 202.781C36.5218 202.228 35.745 201.654 35 201C34.5768 200.629 34.1525 200.236 33.7812 199.812C32.2784 198.097 32.7338 197.321 33.6875 195.438C36.5547 189.511 34.0832 182.398 28.1562 179.531C22.2293 176.664 15.0859 179.136 12.2188 185.062C10.8398 187.992 9.80644 191.03 9.375 194.25C9.20469 195.521 9.10461 196.814 9.125 198.094C9.14539 199.374 9.28203 200.642 9.5 201.906C11.3937 212.892 20.2479 220.263 29.6562 225.094C35.8454 228.271 42.4409 230.511 49.0312 232.688C54.0657 234.351 59.0767 236.148 64.25 237.344C68.3336 238.288 72.5001 238.888 76.6562 239.406C88.102 240.834 99.6166 240.965 111.125 240.281C114.894 240.057 118.688 239.853 122.438 239.406C130.189 238.483 137.855 236.983 145.469 235.281C155.688 232.998 165.759 230.244 175.781 227.219C182.152 225.296 188.497 223.251 194.812 221.156C202.8 218.508 210.721 215.666 218.375 212.156C231.835 205.984 244.518 198.31 257.531 191.281C266.251 186.572 275.291 182.521 283.844 177.5C294.333 171.342 304.02 163.888 314.406 157.562C334.235 145.487 354.555 134.251 374.719 122.75Z" fill="#0fa3f6" stroke="none"/>
</g>
</g>
</g>
<g clip-path="url(#ArtboardFrame)" id="Layer-2" vectornator:layerName="Layer 2">
<g fill="#4b4a4a" opacity="1" stroke="none">
<path clip-path="url(#TextBounds)" d="M80.4766 38.334L80.4766 31.4502C81.5651 31.4502 82.3444 31.3049 82.8145 31.0142C83.2845 30.7235 83.5196 30.1761 83.5196 29.3721L83.5196 19.9834C83.5196 19.167 83.2845 18.6134 82.8145 18.3228C82.3444 18.0321 81.5651 17.8867 80.4766 17.8867L80.4766 11.0029L106.156 11.0029L106.156 21.5049L99.6621 21.5049C99.6621 20.738 99.625 20.1226 99.5508 19.6587C99.4766 19.1948 99.3374 18.8299 99.1333 18.564C98.9292 18.298 98.6571 18.1187 98.3169 18.0259C97.9768 17.9331 97.5531 17.8867 97.0459 17.8867L94.4668 17.8867L94.4668 23.249L100.386 23.249L100.386 26.5146L94.4668 26.5146L94.4668 29.3721C94.4668 30.0277 94.6307 30.5379 94.9585 30.9028C95.2863 31.2677 95.8832 31.4502 96.7491 31.4502L98.6416 31.4502L98.6416 38.334L80.4766 38.334Z" fill-rule="evenodd"/>
<path clip-path="url(#TextBounds)" d="M120.221 17.8867L119.905 22.9893L120.221 22.9893C120.654 21.0348 121.374 19.5566 122.382 18.5547C123.39 17.5527 124.699 17.0518 126.307 17.0518C127.259 17.0518 128.079 17.2033 128.765 17.5063C129.452 17.8094 130.005 18.2145 130.426 18.7217C130.846 19.2288 131.149 19.8133 131.335 20.4751C131.521 21.1369 131.613 21.8203 131.613 22.5254C131.613 23.1068 131.527 23.682 131.354 24.251C131.18 24.82 130.902 25.3333 130.519 25.791C130.135 26.2487 129.64 26.6167 129.034 26.895C128.428 27.1733 127.68 27.3125 126.789 27.3125C125.552 27.3125 124.578 26.9971 123.867 26.3662C123.155 25.7354 122.8 24.9746 122.8 24.084C122.8 23.651 122.849 23.283 122.948 22.98C123.047 22.6769 123.149 22.4295 123.254 22.2378C123.36 22.0461 123.431 21.9069 123.468 21.8203C123.505 21.7337 123.462 21.6904 123.338 21.6904C123.078 21.6904 122.797 21.9873 122.494 22.5811C122.191 23.1748 122.039 24.1087 122.039 25.3828L122.039 29.6318C122.039 30.2874 122.154 30.7544 122.382 31.0327C122.611 31.311 123.053 31.4502 123.709 31.4502L124.822 31.4502L124.822 38.334L109.199 38.334L109.199 31.4502L110.294 31.4502C110.801 31.4502 111.188 31.2863 111.454 30.9585C111.72 30.6307 111.853 30.238 111.853 29.7803L111.853 26.2549C111.853 25.6735 111.682 25.2808 111.342 25.0767C111.002 24.8726 110.616 24.7705 110.183 24.7705L109.199 24.7705L109.199 17.8867L120.221 17.8867Z" fill-rule="evenodd"/>
<path clip-path="url(#TextBounds)" d="M132.764 28.0732C132.764 26.2549 133.079 24.6592 133.71 23.2861C134.341 21.9131 135.241 20.7658 136.41 19.8442C137.579 18.9227 138.986 18.2269 140.631 17.7568C142.276 17.2868 144.113 17.0518 146.142 17.0518C148.17 17.0518 150.007 17.2868 151.652 17.7568C153.298 18.2269 154.702 18.9227 155.864 19.8442C157.027 20.7658 157.927 21.9131 158.564 23.2861C159.201 24.6592 159.52 26.2549 159.52 28.0732C159.52 29.8669 159.201 31.4564 158.564 32.8418C157.927 34.2272 157.027 35.3869 155.864 36.3208C154.702 37.2547 153.298 37.9567 151.652 38.4268C150.007 38.8968 148.17 39.1318 146.142 39.1318C144.113 39.1318 142.276 38.8968 140.631 38.4268C138.986 37.9567 137.579 37.2547 136.41 36.3208C135.241 35.3869 134.341 34.2272 133.71 32.8418C133.079 31.4564 132.764 29.8669 132.764 28.0732ZM143.321 28.0732C143.321 29.1123 143.368 29.9937 143.46 30.7173C143.553 31.4409 143.705 32.0223 143.915 32.4614C144.125 32.9006 144.41 33.2222 144.769 33.4263C145.127 33.6304 145.585 33.7324 146.142 33.7324C146.698 33.7324 147.153 33.6304 147.505 33.4263C147.858 33.2222 148.142 32.9006 148.359 32.4614C148.575 32.0223 148.727 31.4409 148.814 30.7173C148.9 29.9937 148.943 29.1123 148.943 28.0732C148.943 25.9951 148.749 24.5386 148.359 23.7036C147.969 22.8687 147.23 22.4512 146.142 22.4512C145.585 22.4512 145.127 22.547 144.769 22.7388C144.41 22.9305 144.125 23.2459 143.915 23.6851C143.705 24.1242 143.553 24.7056 143.46 25.4292C143.368 26.1528 143.321 27.0342 143.321 28.0732Z" fill-rule="evenodd"/>
<path clip-path="url(#TextBounds)" d="M178.909 26.4775C178.909 25.9951 178.85 25.6086 178.733 25.3179C178.615 25.0272 178.467 24.8045 178.288 24.6499C178.108 24.4953 177.907 24.3932 177.685 24.3438C177.462 24.2943 177.245 24.2695 177.035 24.2695C176.231 24.2695 175.631 24.5046 175.235 24.9746C174.84 25.4447 174.642 26.1126 174.642 26.9785L174.642 29.6318C174.642 30.2874 174.756 30.7544 174.985 31.0327C175.214 31.311 175.656 31.4502 176.312 31.4502L177.314 31.4502L177.314 38.334L161.802 38.334L161.802 31.4502L162.897 31.4502C163.404 31.4502 163.79 31.2863 164.056 30.9585C164.322 30.6307 164.455 30.238 164.455 29.7803L164.455 26.2549C164.455 25.6735 164.285 25.2808 163.945 25.0767C163.605 24.8726 163.218 24.7705 162.785 24.7705L161.802 24.7705L161.802 17.8867L172.823 17.8867L172.434 22.9893L172.749 22.9893C173.021 21.0843 173.856 19.6185 175.254 18.5918C176.652 17.5651 178.55 17.0518 180.95 17.0518C182.645 17.0518 184.024 17.293 185.088 17.7754C186.152 18.2578 186.977 18.867 187.565 19.603C188.153 20.339 188.551 21.1369 188.762 21.9966C188.972 22.8563 189.077 23.6634 189.077 24.418L189.077 29.6318C189.077 30.2874 189.192 30.7544 189.42 31.0327C189.649 31.311 190.092 31.4502 190.747 31.4502L191.749 31.4502L191.749 38.334L178.909 38.334L178.909 26.4775Z" fill-rule="evenodd"/>
<path clip-path="url(#TextBounds)" d="M205.869 11.0029L205.869 17.8867L211.417 17.8867L211.417 24.7705L205.869 24.7705L205.869 30.4668C205.869 31.2832 205.984 31.9512 206.212 32.4707C206.441 32.9902 206.914 33.25 207.632 33.25C208.028 33.25 208.346 33.1727 208.587 33.0181C208.829 32.8634 209.02 32.6593 209.163 32.4058C209.305 32.1522 209.395 31.8615 209.432 31.5337C209.469 31.2059 209.487 30.8503 209.487 30.4668L209.487 27.7021L211.621 27.7021L211.621 30.6895C211.621 31.8893 211.494 33.0088 211.241 34.0479C210.987 35.0869 210.554 35.9837 209.942 36.7383C209.33 37.4928 208.498 38.0928 207.446 38.5381C206.395 38.9834 205.071 39.2061 203.476 39.2061C201.707 39.2061 200.297 38.9896 199.245 38.5566C198.194 38.1237 197.396 37.5299 196.852 36.7754C196.307 36.0208 195.952 35.124 195.785 34.085C195.618 33.0459 195.534 31.9141 195.534 30.6895L195.534 24.7705L192.621 24.7705L192.621 18.6475C193.549 18.6475 194.412 18.4465 195.21 18.0444C196.007 17.6424 196.694 17.0858 197.269 16.3745C197.844 15.6632 198.29 14.8499 198.605 13.9346C198.92 13.0192 199.078 12.042 199.078 11.0029L205.869 11.0029Z" fill-rule="evenodd"/>
<path clip-path="url(#TextBounds)" d="M226.465 17.8867L226.465 29.4463C226.465 30.2751 226.669 30.8162 227.077 31.0698C227.485 31.3234 228.005 31.4502 228.636 31.4502L229.137 31.4502L229.137 38.334L213.514 38.334L213.514 31.4502L214.237 31.4502C214.893 31.4502 215.378 31.243 215.694 30.8286C216.009 30.4142 216.167 29.9658 216.167 29.4834L216.167 26.8672C216.167 26.1497 215.941 25.6209 215.49 25.2808C215.038 24.9406 214.516 24.7705 213.922 24.7705L213.514 24.7705L213.514 17.8867L226.465 17.8867ZM215.87 13.3223C215.87 12.2585 216.275 11.3493 217.085 10.5947C217.896 9.84017 219.049 9.46289 220.546 9.46289C222.067 9.46289 223.239 9.84017 224.062 10.5947C224.885 11.3493 225.296 12.2585 225.296 13.3223C225.296 14.4108 224.885 15.3293 224.062 16.0776C223.239 16.826 222.067 17.2002 220.546 17.2002C219.049 17.2002 217.896 16.826 217.085 16.0776C216.275 15.3293 215.87 14.4108 215.87 13.3223Z" fill-rule="evenodd"/>
<path clip-path="url(#TextBounds)" d="M240.863 29.2607C240.913 31.1038 241.262 32.3748 241.912 33.0737C242.561 33.7726 243.492 34.1221 244.704 34.1221C245.112 34.1221 245.511 34.0633 245.901 33.9458C246.291 33.8283 246.652 33.6366 246.986 33.3706C247.32 33.1047 247.608 32.7521 247.849 32.313C248.09 31.8739 248.248 31.3203 248.322 30.6523L255.076 30.6523C254.829 32.248 254.374 33.584 253.712 34.6602C253.051 35.7363 252.2 36.6053 251.161 37.2671C250.122 37.9289 248.913 38.4051 247.534 38.6958C246.154 38.9865 244.618 39.1318 242.923 39.1318C241.179 39.1318 239.54 38.9092 238.006 38.4639C236.472 38.0186 235.127 37.3413 233.97 36.4321C232.814 35.5229 231.908 34.3787 231.252 32.9995C230.596 31.6203 230.269 29.9782 230.269 28.0732C230.269 26.2549 230.578 24.6592 231.196 23.2861C231.815 21.9131 232.684 20.7658 233.803 19.8442C234.923 18.9227 236.246 18.2269 237.774 17.7568C239.302 17.2868 240.981 17.0518 242.812 17.0518C245.063 17.0518 246.999 17.3486 248.619 17.9424C250.24 18.5361 251.563 19.3649 252.59 20.4287C253.617 21.4925 254.371 22.7728 254.854 24.2695C255.336 25.7663 255.565 27.43 255.54 29.2607L240.863 29.2607ZM243.609 22.0615C242.744 22.0615 242.103 22.3677 241.689 22.98C241.275 23.5923 240.999 24.6035 240.863 26.0137L246.3 26.0137C246.226 24.8014 245.966 23.8397 245.521 23.1284C245.075 22.4172 244.438 22.0615 243.609 22.0615Z" fill-rule="evenodd"/>
<path clip-path="url(#TextBounds)" d="M268.881 17.8867L268.565 22.9893L268.881 22.9893C269.314 21.0348 270.034 19.5566 271.043 18.5547C272.051 17.5527 273.359 17.0518 274.967 17.0518C275.919 17.0518 276.739 17.2033 277.425 17.5063C278.112 17.8094 278.665 18.2145 279.086 18.7217C279.507 19.2288 279.81 19.8133 279.995 20.4751C280.181 21.1369 280.273 21.8203 280.273 22.5254C280.273 23.1068 280.187 23.682 280.014 24.251C279.841 24.82 279.562 25.3333 279.179 25.791C278.795 26.2487 278.3 26.6167 277.694 26.895C277.088 27.1733 276.34 27.3125 275.449 27.3125C274.212 27.3125 273.238 26.9971 272.527 26.3662C271.816 25.7354 271.46 24.9746 271.46 24.084C271.46 23.651 271.509 23.283 271.608 22.98C271.707 22.6769 271.809 22.4295 271.915 22.2378C272.02 22.0461 272.091 21.9069 272.128 21.8203C272.165 21.7337 272.122 21.6904 271.998 21.6904C271.738 21.6904 271.457 21.9873 271.154 22.5811C270.851 23.1748 270.699 24.1087 270.699 25.3828L270.699 29.6318C270.699 30.2874 270.814 30.7544 271.043 31.0327C271.271 31.311 271.714 31.4502 272.369 31.4502L273.482 31.4502L273.482 38.334L257.859 38.334L257.859 31.4502L258.954 31.4502C259.461 31.4502 259.848 31.2863 260.114 30.9585C260.38 30.6307 260.513 30.238 260.513 29.7803L260.513 26.2549C260.513 25.6735 260.343 25.2808 260.002 25.0767C259.662 24.8726 259.276 24.7705 258.843 24.7705L257.859 24.7705L257.859 17.8867L268.881 17.8867Z" fill-rule="evenodd"/>
<path clip-path="url(#TextBounds)" d="M308.551 31.4502C309.231 31.4502 309.896 31.376 310.545 31.2275C311.195 31.0791 311.764 30.7699 312.252 30.2998C312.741 29.8298 313.14 29.1525 313.449 28.2681C313.758 27.3836 313.913 26.193 313.913 24.6963C313.913 23.2243 313.765 22.0399 313.468 21.1431C313.171 20.2463 312.784 19.5566 312.308 19.0742C311.832 18.5918 311.263 18.2733 310.601 18.1187C309.939 17.964 309.256 17.8867 308.551 17.8867L306.807 17.8867L306.807 31.4502L308.551 31.4502ZM292.816 38.334L292.816 31.4502C293.905 31.4502 294.684 31.3049 295.154 31.0142C295.624 30.7235 295.859 30.1761 295.859 29.3721L295.859 19.9834C295.859 19.167 295.624 18.6134 295.154 18.3228C294.684 18.0321 293.905 17.8867 292.816 17.8867L292.816 11.0029L312.503 11.0029C314.272 11.0029 315.985 11.238 317.643 11.708C319.3 12.1781 320.775 12.945 322.068 14.0088C323.361 15.0726 324.4 16.4797 325.185 18.23C325.971 19.9803 326.363 22.1357 326.363 24.6963C326.363 27.2568 325.977 29.4092 325.204 31.1533C324.431 32.8975 323.379 34.3014 322.049 35.3652C320.72 36.429 319.164 37.196 317.383 37.666C315.602 38.1361 313.709 38.3711 311.705 38.3711L292.816 38.334Z" fill-rule="evenodd"/>
<path clip-path="url(#TextBounds)" d="M341.801 17.8867L341.801 29.4463C341.801 30.2751 342.005 30.8162 342.413 31.0698C342.821 31.3234 343.341 31.4502 343.972 31.4502L344.473 31.4502L344.473 38.334L328.85 38.334L328.85 31.4502L329.573 31.4502C330.229 31.4502 330.714 31.243 331.03 30.8286C331.345 30.4142 331.503 29.9658 331.503 29.4834L331.503 26.8672C331.503 26.1497 331.277 25.6209 330.826 25.2808C330.374 24.9406 329.852 24.7705 329.258 24.7705L328.85 24.7705L328.85 17.8867L341.801 17.8867ZM331.206 13.3223C331.206 12.2585 331.611 11.3493 332.421 10.5947C333.232 9.84017 334.385 9.46289 335.882 9.46289C337.403 9.46289 338.575 9.84017 339.398 10.5947C340.221 11.3493 340.632 12.2585 340.632 13.3223C340.632 14.4108 340.221 15.3293 339.398 16.0776C338.575 16.826 337.403 17.2002 335.882 17.2002C334.385 17.2002 333.232 16.826 332.421 16.0776C331.611 15.3293 331.206 14.4108 331.206 13.3223Z" fill-rule="evenodd"/>
<path clip-path="url(#TextBounds)" d="M372.843 41.7109C372.843 43.8138 371.634 45.4219 369.215 46.5352C366.797 47.6484 363.3 48.2051 358.723 48.2051C357.065 48.2051 355.451 48.1803 353.88 48.1309C352.309 48.0814 350.917 47.9175 349.705 47.6392C348.493 47.3608 347.519 46.9186 346.783 46.3125C346.047 45.7064 345.679 44.8467 345.679 43.7334C345.679 42.8428 345.963 42.113 346.532 41.5439C347.101 40.9749 347.714 40.5234 348.369 40.1895C347.565 39.707 347.018 39.1689 346.727 38.5752C346.436 37.9814 346.291 37.332 346.291 36.627C346.291 35.7858 346.594 34.9787 347.2 34.2056C347.806 33.4325 348.678 32.681 349.816 31.9512C348.703 31.2214 347.85 30.3307 347.256 29.2793C346.662 28.2279 346.365 26.9785 346.365 25.5312C346.365 24.1335 346.656 22.9089 347.237 21.8574C347.819 20.806 348.654 19.9277 349.742 19.2227C350.831 18.5176 352.13 17.9795 353.639 17.6084C355.148 17.2373 356.842 17.0518 358.723 17.0518C360.739 17.0518 362.56 17.2682 364.187 17.7012C365.814 18.1341 367.196 18.7897 368.334 19.668C368.557 19.3711 368.86 19.0804 369.243 18.7959C369.565 18.5732 369.973 18.366 370.468 18.1743C370.963 17.9826 371.569 17.8867 372.286 17.8867L373.993 17.8867L373.993 24.7705L372.769 24.7705C372.237 24.7705 371.832 24.9159 371.553 25.2065C371.275 25.4972 371.111 25.7786 371.062 26.0508C370.629 28.6608 369.367 30.6523 367.276 32.0254C365.186 33.3984 362.335 34.085 358.723 34.085C356.694 34.085 354.857 33.8685 353.212 33.4355C352.952 33.6087 352.822 33.8252 352.822 34.085C352.822 34.5674 353.107 34.9076 353.676 35.1055C354.245 35.3034 354.999 35.4364 355.939 35.5044C356.88 35.5724 357.95 35.5972 359.149 35.5786C360.349 35.5601 361.577 35.5786 362.833 35.6343C364.088 35.6899 365.319 35.8044 366.525 35.9775C367.731 36.1507 368.801 36.46 369.735 36.9053C370.669 37.3506 371.42 37.9598 371.989 38.7329C372.558 39.506 372.843 40.4987 372.843 41.7109ZM356.125 25.5312C356.125 26.8177 356.304 27.8104 356.663 28.5093C357.022 29.2082 357.708 29.5576 358.723 29.5576C359.749 29.5576 360.442 29.2082 360.801 28.5093C361.16 27.8104 361.339 26.8177 361.339 25.5312C361.339 24.2572 361.16 23.2861 360.801 22.6182C360.442 21.9502 359.749 21.6162 358.723 21.6162C357.708 21.6162 357.022 21.9502 356.663 22.6182C356.304 23.2861 356.125 24.2572 356.125 25.5312ZM359.558 41.9893C358.234 41.9893 357.034 41.9552 355.958 41.8872C354.882 41.8192 353.911 41.7233 353.045 41.5996C352.921 41.8099 352.859 42.0264 352.859 42.249C352.859 43.1396 353.342 43.7241 354.307 44.0024C355.272 44.2808 356.539 44.4199 358.11 44.4199C360.213 44.4199 361.75 44.2931 362.721 44.0396C363.692 43.786 364.178 43.4303 364.178 42.9727C364.178 42.7376 364.039 42.5583 363.76 42.4346C363.482 42.3109 363.117 42.2119 362.666 42.1377C362.214 42.0635 361.716 42.0202 361.172 42.0078C360.628 41.9954 360.09 41.9893 359.558 41.9893Z" fill-rule="evenodd"/>
<path clip-path="url(#TextBounds)" d="M388.837 17.8867L388.837 29.4463C388.837 30.2751 389.041 30.8162 389.449 31.0698C389.857 31.3234 390.377 31.4502 391.008 31.4502L391.509 31.4502L391.509 38.334L375.886 38.334L375.886 31.4502L376.609 31.4502C377.265 31.4502 377.751 31.243 378.066 30.8286C378.381 30.4142 378.539 29.9658 378.539 29.4834L378.539 26.8672C378.539 26.1497 378.313 25.6209 377.862 25.2808C377.41 24.9406 376.888 24.7705 376.294 24.7705L375.886 24.7705L375.886 17.8867L388.837 17.8867ZM378.242 13.3223C378.242 12.2585 378.647 11.3493 379.458 10.5947C380.268 9.84017 381.421 9.46289 382.918 9.46289C384.439 9.46289 385.612 9.84017 386.434 10.5947C387.257 11.3493 387.668 12.2585 387.668 13.3223C387.668 14.4108 387.257 15.3293 386.434 16.0776C385.612 16.826 384.439 17.2002 382.918 17.2002C381.421 17.2002 380.268 16.826 379.458 16.0776C378.647 15.3293 378.242 14.4108 378.242 13.3223Z" fill-rule="evenodd"/>
<path clip-path="url(#TextBounds)" d="M405.629 11.0029L405.629 17.8867L411.177 17.8867L411.177 24.7705L405.629 24.7705L405.629 30.4668C405.629 31.2832 405.743 31.9512 405.972 32.4707C406.201 32.9902 406.674 33.25 407.392 33.25C407.787 33.25 408.106 33.1727 408.347 33.0181C408.588 32.8634 408.78 32.6593 408.922 32.4058C409.065 32.1522 409.154 31.8615 409.191 31.5337C409.229 31.2059 409.247 30.8503 409.247 30.4668L409.247 27.7021L411.381 27.7021L411.381 30.6895C411.381 31.8893 411.254 33.0088 411.001 34.0479C410.747 35.0869 410.314 35.9837 409.702 36.7383C409.089 37.4928 408.258 38.0928 407.206 38.5381C406.155 38.9834 404.831 39.2061 403.235 39.2061C401.467 39.2061 400.056 38.9896 399.005 38.5566C397.953 38.1237 397.156 37.5299 396.611 36.7754C396.067 36.0208 395.711 35.124 395.544 34.085C395.377 33.0459 395.294 31.9141 395.294 30.6895L395.294 24.7705L392.381 24.7705L392.381 18.6475C393.309 18.6475 394.171 18.4465 394.969 18.0444C395.767 17.6424 396.454 17.0858 397.029 16.3745C397.604 15.6632 398.049 14.8499 398.365 13.9346C398.68 13.0192 398.838 12.042 398.838 11.0029L405.629 11.0029Z" fill-rule="evenodd"/>
<path clip-path="url(#TextBounds)" d="M422.421 20.4658C421.79 20.4658 421.249 20.5122 420.797 20.605C420.346 20.6978 419.959 20.806 419.638 20.9297C419.316 21.0534 419.05 21.1925 418.84 21.3472C418.63 21.5018 418.444 21.641 418.283 21.7646L418.469 21.9502C418.704 21.8265 418.96 21.7028 419.239 21.5791C419.517 21.4554 419.873 21.3936 420.306 21.3936C421.036 21.3936 421.666 21.6317 422.198 22.1079C422.73 22.5841 422.996 23.3418 422.996 24.3809C422.996 25.3704 422.591 26.1652 421.781 26.7651C420.971 27.3651 419.885 27.665 418.524 27.665C417.226 27.665 416.19 27.2909 415.417 26.5425C414.643 25.7941 414.257 24.7334 414.257 23.3604C414.257 22.6058 414.467 21.8543 414.888 21.106C415.308 20.3576 415.961 19.6865 416.845 19.0928C417.73 18.499 418.855 18.0104 420.222 17.627C421.589 17.2435 423.237 17.0518 425.167 17.0518C427.468 17.0518 429.348 17.2682 430.808 17.7012C432.267 18.1341 433.402 18.6908 434.212 19.3711C435.023 20.0514 435.579 20.8245 435.882 21.6904C436.185 22.5563 436.337 23.4284 436.337 24.3066L436.337 31.5615C436.337 32.6872 436.374 33.451 436.448 33.853C436.522 34.255 436.801 34.4561 437.283 34.4561C437.667 34.4561 437.936 34.2736 438.09 33.9087C438.245 33.5438 438.322 32.916 438.322 32.0254L438.322 29.7061L440.438 29.7061L440.438 32.0625C440.438 33.1758 440.345 34.1623 440.159 35.022C439.974 35.8817 439.621 36.6177 439.102 37.23C438.582 37.8423 437.877 38.3062 436.986 38.6216C436.096 38.937 434.958 39.0947 433.572 39.0947C432.323 39.0947 431.287 38.9618 430.464 38.6958C429.642 38.4299 428.989 38.099 428.507 37.7031C428.024 37.3073 427.681 36.896 427.477 36.4692C427.273 36.0425 427.171 35.6621 427.171 35.3281L426.874 35.3281C426.8 35.8353 426.586 36.3177 426.234 36.7754C425.881 37.2331 425.393 37.6382 424.768 37.9907C424.143 38.3433 423.395 38.6278 422.523 38.8442C421.651 39.0607 420.658 39.1689 419.545 39.1689C418.481 39.1689 417.513 39.0669 416.641 38.8628C415.769 38.6587 415.027 38.3371 414.415 37.8979C413.802 37.4588 413.326 36.8898 412.986 36.1909C412.646 35.492 412.476 34.6602 412.476 33.6953C412.476 32.5078 412.81 31.5708 413.478 30.8843C414.146 30.1978 414.987 29.6535 416.001 29.2515C417.015 28.8494 418.119 28.5216 419.313 28.2681C420.507 28.0145 421.611 27.7083 422.625 27.3496C423.639 26.9909 424.481 26.527 425.148 25.958C425.816 25.389 426.15 24.585 426.15 23.5459C426.15 22.6182 425.86 21.8729 425.278 21.3101C424.697 20.7472 423.745 20.4658 422.421 20.4658ZM426.15 28.5C425.878 28.8958 425.538 29.2144 425.13 29.4556C424.722 29.6968 424.329 29.9318 423.952 30.1606C423.574 30.3895 423.247 30.6616 422.968 30.9771C422.69 31.2925 422.551 31.7161 422.551 32.248C422.551 32.6563 422.662 33.0243 422.885 33.3521C423.107 33.6799 423.54 33.8438 424.184 33.8438C424.765 33.8438 425.238 33.618 425.603 33.1665C425.968 32.715 426.15 32.0811 426.15 31.2646L426.15 28.5Z" fill-rule="evenodd"/>
<path clip-path="url(#TextBounds)" d="M454.613 11.0029L454.613 29.4463C454.613 30.2751 454.817 30.8162 455.226 31.0698C455.634 31.3234 456.153 31.4502 456.784 31.4502L457.285 31.4502L457.285 38.334L441.662 38.334L441.662 31.4502L442.386 31.4502C443.041 31.4502 443.527 31.243 443.842 30.8286C444.158 30.4142 444.315 29.9658 444.315 29.4834L444.315 19.9834C444.315 19.266 444.09 18.7371 443.638 18.397C443.187 18.0568 442.664 17.8867 442.07 17.8867L441.662 17.8867L441.662 11.0029L454.613 11.0029Z" fill-rule="evenodd"/>
</g>
<path d="M2.58529 30.0716" fill="none" fill-rule="evenodd" opacity="1" stroke="#f6730f" stroke-linecap="round" stroke-linejoin="round" stroke-width="3.41203"/>
<path d="M15.0081 30.8145L53.8617 3.21919L69.051 18.1844" fill="none" fill-rule="evenodd" filter="url(#Filter)" stroke="#f6730f" stroke-linecap="round" stroke-linejoin="round" stroke-width="10" vectornator:shadowAngle="1.5708" vectornator:shadowColor="#000000" vectornator:shadowOffset="10" vectornator:shadowOpacity="0.333" vectornator:shadowRadius="10"/>
<path d="M47.4964 24.9258L37.5718 14.949" fill="none" fill-rule="evenodd" filter="url(#Filter_2)" stroke="#f6730f" stroke-linecap="round" stroke-linejoin="round" stroke-width="10" vectornator:shadowAngle="1.5777" vectornator:shadowColor="#000000" vectornator:shadowOffset="10" vectornator:shadowOpacity="0.333" vectornator:shadowRadius="10"/>
<path d="M11.9262 29.3286C11.9262 29.3286 13.0943 33.2424 16.2494 36.1971C17.6093 37.4707 24.3928 39.5613 26.5565 40.0884C35.2293 42.201 47.7602 40.0312 53.2385 37.7091C66.0994 32.2579 73.0348 16.8492 73.0348 16.8492" fill="none" fill-rule="evenodd" opacity="1" stroke="#0fa3f6" stroke-linecap="round" stroke-linejoin="round" stroke-width="10.5295"/>
<path d="M48.8949 52.3148" fill="none" fill-rule="evenodd" opacity="1" stroke="#7d7d7d" stroke-linecap="round" stroke-linejoin="round" stroke-width="10.5295"/>
</g>
</svg>
